<?xml version="1.0" encoding="utf-8"?>
<!-- Generator: Adobe Illustrator 25.2.1, SVG Export Plug-In . SVG Version: 6.00 Build 0)  -->
<svg version="1.1" xmlns="http://www.w3.org/2000/svg" xmlns:xlink="http://www.w3.org/1999/xlink" x="0px" y="0px"
	 viewBox="0 0 677.1 228.4" style="enable-background:new 0 0 677.1 228.4;" xml:space="preserve">
<style type="text/css">
	.st0{clip-path:url(#SVGID_2_);}
	.st1{clip-path:url(#SVGID_4_);}
	.st2{opacity:0.16;}
	.st3{fill:#DCDDDE;}
	.st4{opacity:0.8;}
	.st5{opacity:0.28;}
	.st6{opacity:0.37;}
</style>
<g id="BACKGROUND">
</g>
<g id="OBJECTS">
	<g>
		<defs>
			<rect id="SVGID_1_" width="677.1" height="228.4"/>
		</defs>
		<clipPath id="SVGID_2_">
			<use xlink:href="#SVGID_1_"  style="overflow:visible;"/>
		</clipPath>
		<g class="st0">
			<defs>
				<rect id="SVGID_3_" x="241.1" width="436.1" height="228.4"/>
			</defs>
			<clipPath id="SVGID_4_">
				<use xlink:href="#SVGID_3_"  style="overflow:visible;"/>
			</clipPath>
			<g class="st1">
				<g class="st2">
					<polygon class="st3" points="422.7,20.2 397.4,20.2 279.4,131.4 304.7,131.4 					"/>
					<polygon class="st3" points="279.4,131.4 397.4,242.7 422.7,242.7 304.7,131.4 					"/>
					<polygon class="st3" points="591,20.2 451.4,20.2 333.4,131.4 333.4,131.4 333.4,131.4 451.4,242.7 591,242.7 473.4,131.1 
											"/>
				</g>
				<g class="st4">
					<path class="st3" d="M399.8,40.1c-0.1-0.1-0.1-0.3,0-0.4l44-42.7c0.6-0.7,0.4-1.8-0.3-2.4c-0.3-0.2-0.7-0.4-1-0.4
						c-0.5,0-1,0.2-1.3,0.6l-44,42.7c-1.1,1.3-1.1,3.2,0,4.6l44,42.3c0.6,0.7,1.6,0.8,2.4,0.3c0.7-0.6,0.8-1.6,0.3-2.4L399.8,40.1z"
						/>
					<path class="st3" d="M385.5,40.1c-0.1-0.1-0.1-0.3,0-0.4l44-42.7c0.6-0.7,0.4-1.8-0.3-2.4c-0.3-0.2-0.7-0.4-1-0.4
						c-0.5,0-1,0.2-1.3,0.6l-44,42.7c-1.1,1.3-1.1,3.2,0,4.6l44,42.3c0.6,0.7,1.6,0.8,2.4,0.3c0.7-0.6,0.8-1.6,0.3-2.4L385.5,40.1z"
						/>
					<path class="st3" d="M371.1,40.1c-0.1-0.1-0.1-0.3,0-0.4l44-42.7c0.6-0.7,0.4-1.8-0.3-2.4c-0.3-0.2-0.7-0.4-1-0.4
						c-0.5,0-1,0.2-1.3,0.6l-44,42.7c-1.1,1.3-1.1,3.2,0,4.6l44,42.3c0.6,0.7,1.6,0.8,2.4,0.3c0.7-0.6,0.8-1.6,0.3-2.4L371.1,40.1z"
						/>
				</g>
				<g class="st5">
					<path class="st3" d="M551.5,192.3l-44.3-41.1l44.4-43.9c1.4-1.4,1.7-4,0.5-5.7c-0.7-1-1.6-1.5-2.6-1.5c-0.7,0-1.5,0.3-2.1,0.9
						l-51,50.5l51.1,47.4c1.5,1.4,3.6,1,4.7-0.8C553.3,196.2,553,193.6,551.5,192.3z"/>
					<path class="st3" d="M520.3,192.3l-44.3-41.1l44.4-43.9c1.4-1.4,1.7-4,0.5-5.7c-0.7-1-1.6-1.5-2.6-1.5c-0.7,0-1.5,0.3-2.1,0.9
						l-51,50.5l51.1,47.4c1.5,1.4,3.6,1,4.7-0.8C522,196.2,521.7,193.6,520.3,192.3z"/>
					<path class="st3" d="M489,192.3l-44.3-41.1l44.4-43.9c1.4-1.4,1.7-4,0.5-5.7c-0.7-1-1.6-1.5-2.6-1.5c-0.7,0-1.5,0.3-2.1,0.9
						l-51,50.5l51.1,47.4c1.5,1.4,3.6,1,4.7-0.8C490.7,196.2,490.4,193.6,489,192.3z"/>
				</g>
				<g>
					<path class="st3" d="M682,222.5c-1.6,0-2.9,1.3-2.9,2.9c0,1.6,1.3,2.9,2.9,2.9c1.6,0,2.9-1.3,2.9-2.9
						C684.9,223.8,683.6,222.5,682,222.5z"/>
					<path class="st3" d="M672.3,211.7c-1.7,0-3.1,1.4-3.1,3.1c0,1.7,1.4,3.1,3.1,3.1c1.7,0,3.1-1.4,3.1-3.1
						C675.4,213.1,674,211.7,672.3,211.7z"/>
					<path class="st3" d="M661.9,201.4c-1.7,0-3.1,1.4-3.1,3.1c0,1.7,1.4,3.1,3.1,3.1c1.7,0,3.1-1.4,3.1-3.1
						C665,202.8,663.6,201.4,661.9,201.4z"/>
					<path class="st3" d="M652.2,190.7c-1.8,0-3.3,1.5-3.3,3.3c0,1.8,1.5,3.3,3.3,3.3c1.8,0,3.3-1.5,3.3-3.3
						C655.5,192.2,654.1,190.7,652.2,190.7z"/>
					<path class="st3" d="M641.8,180.4c-1.8,0-3.3,1.5-3.3,3.3s1.5,3.3,3.3,3.3c1.8,0,3.3-1.5,3.3-3.3S643.7,180.4,641.8,180.4z"/>
					<path class="st3" d="M652.2,169.8c-1.8,0-3.3,1.5-3.3,3.3c0,1.8,1.5,3.3,3.3,3.3c1.8,0,3.3-1.5,3.3-3.3
						C655.5,171.2,654.1,169.8,652.2,169.8z"/>
					<path class="st3" d="M661.9,159.6c-1.7,0-3.1,1.4-3.1,3.1c0,1.7,1.4,3.1,3.1,3.1c1.7,0,3.1-1.4,3.1-3.1
						C665,161,663.6,159.6,661.9,159.6z"/>
					<path class="st3" d="M672.3,149.1c-1.7,0-3.1,1.4-3.1,3.1c0,1.7,1.4,3.1,3.1,3.1c1.7,0,3.1-1.4,3.1-3.1
						C675.4,150.5,674,149.1,672.3,149.1z"/>
					<path class="st3" d="M682,144.9c1.6,0,2.9-1.3,2.9-2.9c0-1.6-1.3-2.9-2.9-2.9c-1.6,0-2.9,1.3-2.9,2.9
						C679,143.6,680.3,144.9,682,144.9z"/>
					<path class="st3" d="M661.3,222.5c-1.6,0-2.9,1.3-2.9,2.9c0,1.6,1.3,2.9,2.9,2.9c1.6,0,2.9-1.3,2.9-2.9
						C664.2,223.8,662.9,222.5,661.3,222.5z"/>
					<path class="st3" d="M651.6,211.7c-1.7,0-3.1,1.4-3.1,3.1c0,1.7,1.4,3.1,3.1,3.1c1.7,0,3.1-1.4,3.1-3.1
						C654.7,213.1,653.3,211.7,651.6,211.7z"/>
					<path class="st3" d="M641.2,201.4c-1.7,0-3.1,1.4-3.1,3.1c0,1.7,1.4,3.1,3.1,3.1c1.7,0,3.1-1.4,3.1-3.1
						C644.3,202.8,642.9,201.4,641.2,201.4z"/>
					<path class="st3" d="M631.5,190.7c-1.8,0-3.3,1.5-3.3,3.3c0,1.8,1.5,3.3,3.3,3.3c1.8,0,3.3-1.5,3.3-3.3
						C634.8,192.2,633.3,190.7,631.5,190.7z"/>
					<path class="st3" d="M621.1,180.4c-1.8,0-3.3,1.5-3.3,3.3s1.5,3.3,3.3,3.3c1.8,0,3.3-1.5,3.3-3.3S622.9,180.4,621.1,180.4z"/>
					<path class="st3" d="M631.5,169.8c-1.8,0-3.3,1.5-3.3,3.3c0,1.8,1.5,3.3,3.3,3.3c1.8,0,3.3-1.5,3.3-3.3
						C634.8,171.2,633.3,169.8,631.5,169.8z"/>
					<path class="st3" d="M641.2,159.6c-1.7,0-3.1,1.4-3.1,3.1c0,1.7,1.4,3.1,3.1,3.1c1.7,0,3.1-1.4,3.1-3.1
						C644.3,161,642.9,159.6,641.2,159.6z"/>
					<path class="st3" d="M651.6,155.3c1.7,0,3.1-1.4,3.1-3.1c0-1.7-1.4-3.1-3.1-3.1c-1.7,0-3.1,1.4-3.1,3.1
						C648.5,153.9,649.9,155.3,651.6,155.3z"/>
					<path class="st3" d="M661.3,144.9c1.6,0,2.9-1.3,2.9-2.9c0-1.6-1.3-2.9-2.9-2.9c-1.6,0-2.9,1.3-2.9,2.9
						C658.3,143.6,659.6,144.9,661.3,144.9z"/>
					<path class="st3" d="M640.5,222.5c-1.6,0-2.9,1.3-2.9,2.9c0,1.6,1.3,2.9,2.9,2.9c1.6,0,2.9-1.3,2.9-2.9
						C643.5,223.8,642.2,222.5,640.5,222.5z"/>
					<path class="st3" d="M630.9,211.7c-1.7,0-3.1,1.4-3.1,3.1c0,1.7,1.4,3.1,3.1,3.1c1.7,0,3.1-1.4,3.1-3.1
						C634,213.1,632.6,211.7,630.9,211.7z"/>
					<path class="st3" d="M620.5,201.4c-1.7,0-3.1,1.4-3.1,3.1c0,1.7,1.4,3.1,3.1,3.1c1.7,0,3.1-1.4,3.1-3.1
						C623.6,202.8,622.2,201.4,620.5,201.4z"/>
					<path class="st3" d="M610.8,190.7c-1.8,0-3.3,1.5-3.3,3.3c0,1.8,1.5,3.3,3.3,3.3c1.8,0,3.3-1.5,3.3-3.3
						C614.1,192.2,612.6,190.7,610.8,190.7z"/>
					<path class="st3" d="M600.4,180.4c-1.8,0-3.3,1.5-3.3,3.3s1.5,3.3,3.3,3.3c1.8,0,3.3-1.5,3.3-3.3S602.2,180.4,600.4,180.4z"/>
					<path class="st3" d="M610.8,169.8c-1.8,0-3.3,1.5-3.3,3.3c0,1.8,1.5,3.3,3.3,3.3c1.8,0,3.3-1.5,3.3-3.3
						C614.1,171.2,612.6,169.8,610.8,169.8z"/>
					<path class="st3" d="M620.5,159.6c-1.7,0-3.1,1.4-3.1,3.1c0,1.7,1.4,3.1,3.1,3.1c1.7,0,3.1-1.4,3.1-3.1
						C623.6,161,622.2,159.6,620.5,159.6z"/>
					<path class="st3" d="M630.9,155.3c1.7,0,3.1-1.4,3.1-3.1c0-1.7-1.4-3.1-3.1-3.1c-1.7,0-3.1,1.4-3.1,3.1
						C627.8,153.9,629.2,155.3,630.9,155.3z"/>
					<path class="st3" d="M640.5,144.9c1.6,0,2.9-1.3,2.9-2.9c0-1.6-1.3-2.9-2.9-2.9c-1.6,0-2.9,1.3-2.9,2.9
						C637.6,143.6,638.9,144.9,640.5,144.9z"/>
					<path class="st3" d="M619.8,222.5c-1.6,0-2.9,1.3-2.9,2.9c0,1.6,1.3,2.9,2.9,2.9c1.6,0,2.9-1.3,2.9-2.9
						C622.8,223.8,621.4,222.5,619.8,222.5z"/>
					<path class="st3" d="M610.2,211.7c-1.7,0-3.1,1.4-3.1,3.1c0,1.7,1.4,3.1,3.1,3.1c1.7,0,3.1-1.4,3.1-3.1
						C613.3,213.1,611.9,211.7,610.2,211.7z"/>
					<path class="st3" d="M599.8,201.4c-1.7,0-3.1,1.4-3.1,3.1c0,1.7,1.4,3.1,3.1,3.1c1.7,0,3.1-1.4,3.1-3.1
						C602.9,202.8,601.5,201.4,599.8,201.4z"/>
					<path class="st3" d="M590.1,190.7c-1.8,0-3.3,1.5-3.3,3.3c0,1.8,1.5,3.3,3.3,3.3c1.8,0,3.3-1.5,3.3-3.3
						C593.4,192.2,591.9,190.7,590.1,190.7z"/>
					<path class="st3" d="M579.7,180.4c-1.8,0-3.3,1.5-3.3,3.3s1.5,3.3,3.3,3.3c1.8,0,3.3-1.5,3.3-3.3S581.5,180.4,579.7,180.4z"/>
					<path class="st3" d="M590.1,169.8c-1.8,0-3.3,1.5-3.3,3.3c0,1.8,1.5,3.3,3.3,3.3c1.8,0,3.3-1.5,3.3-3.3
						C593.4,171.2,591.9,169.8,590.1,169.8z"/>
					<path class="st3" d="M599.8,159.6c-1.7,0-3.1,1.4-3.1,3.1c0,1.7,1.4,3.1,3.1,3.1c1.7,0,3.1-1.4,3.1-3.1
						C602.9,161,601.5,159.6,599.8,159.6z"/>
					<path class="st3" d="M610.2,155.3c1.7,0,3.1-1.4,3.1-3.1c0-1.7-1.4-3.1-3.1-3.1c-1.7,0-3.1,1.4-3.1,3.1
						C607,153.9,608.4,155.3,610.2,155.3z"/>
					<path class="st3" d="M619.8,144.9c1.6,0,2.9-1.3,2.9-2.9c0-1.6-1.3-2.9-2.9-2.9c-1.6,0-2.9,1.3-2.9,2.9
						C616.9,143.6,618.2,144.9,619.8,144.9z"/>
					<path class="st3" d="M599.1,222.5c-1.6,0-2.9,1.3-2.9,2.9c0,1.6,1.3,2.9,2.9,2.9c1.6,0,2.9-1.3,2.9-2.9
						C602,223.8,600.7,222.5,599.1,222.5z"/>
					<path class="st3" d="M589.4,211.7c-1.7,0-3.1,1.4-3.1,3.1c0,1.7,1.4,3.1,3.1,3.1c1.7,0,3.1-1.4,3.1-3.1
						C592.5,213.1,591.2,211.7,589.4,211.7z"/>
					<path class="st3" d="M579,201.4c-1.7,0-3.1,1.4-3.1,3.1c0,1.7,1.4,3.1,3.1,3.1c1.7,0,3.1-1.4,3.1-3.1
						C582.1,202.8,580.8,201.4,579,201.4z"/>
					<path class="st3" d="M569.4,190.7c-1.8,0-3.3,1.5-3.3,3.3c0,1.8,1.5,3.3,3.3,3.3c1.8,0,3.3-1.5,3.3-3.3
						C572.6,192.2,571.2,190.7,569.4,190.7z"/>
					<path class="st3" d="M559,180.4c-1.8,0-3.3,1.5-3.3,3.3s1.5,3.3,3.3,3.3c1.8,0,3.3-1.5,3.3-3.3S560.8,180.4,559,180.4z"/>
					<path class="st3" d="M569.4,169.8c-1.8,0-3.3,1.5-3.3,3.3c0,1.8,1.5,3.3,3.3,3.3c1.8,0,3.3-1.5,3.3-3.3
						C572.6,171.2,571.2,169.8,569.4,169.8z"/>
					<path class="st3" d="M579,165.9c1.7,0,3.1-1.4,3.1-3.1c0-1.7-1.4-3.1-3.1-3.1c-1.7,0-3.1,1.4-3.1,3.1
						C575.9,164.5,577.3,165.9,579,165.9z"/>
					<path class="st3" d="M589.4,155.3c1.7,0,3.1-1.4,3.1-3.1c0-1.7-1.4-3.1-3.1-3.1c-1.7,0-3.1,1.4-3.1,3.1
						C586.3,153.9,587.7,155.3,589.4,155.3z"/>
					<path class="st3" d="M599.1,144.9c1.6,0,2.9-1.3,2.9-2.9c0-1.6-1.3-2.9-2.9-2.9c-1.6,0-2.9,1.3-2.9,2.9
						C596.2,143.6,597.5,144.9,599.1,144.9z"/>
				</g>
				<g class="st6">
					<polygon class="st3" points="645,-8.2 645,-27 555.8,53.6 645,134.2 645,115.4 576.6,53.6 					"/>
					<polygon class="st3" points="612.5,-8.2 612.5,-27 523.2,53.6 612.5,134.2 612.5,115.4 544.1,53.6 					"/>
					<polygon class="st3" points="587.9,53.6 677.1,134.2 677.1,-27 					"/>
				</g>
			</g>
		</g>
	</g>
</g>
</svg>
